<svg width="220" height="24" viewBox="0 0 220 24" fill="none" xmlns="http://www.w3.org/2000/svg">
<path d="M33.0338 19.2037C31.5643 19.0033 30.3954 17.8344 30.195 16.3649V0.0333983H26.0203V15.9641C26.0203 17.133 26.2874 18.2352 26.7884 19.2371C27.4898 20.7066 28.6921 21.9089 30.1616 22.6437C31.1635 23.1446 32.2656 23.4118 33.4346 23.4118H45.2908V19.2371L33.0338 19.2037ZM67.826 1.83688C66.6905 0.701354 65.1208 0 63.3841 0H48.6557V23.3784H52.8304V12.6244H64.0187V12.591C64.0855 12.591 64.1523 12.591 64.2191 12.591C64.8536 12.5242 65.4548 12.3572 66.0226 12.09C68.1934 11.0881 69.6963 8.8838 69.6963 6.34557C69.6963 4.60889 68.995 3.0392 67.8594 1.87027L67.826 1.83688ZM64.2859 8.28264C64.0187 8.41624 63.7181 8.48303 63.4175 8.48303H52.8304V4.17472H63.4175C64.1523 4.17472 64.6532 4.5087 64.9204 4.77588C65.1542 5.00966 65.555 5.54403 65.555 6.31218C65.555 7.14712 65.054 7.91527 64.2859 8.24925V8.28264ZM92.2221 0V8.48303H77.1931V0H73.0184V23.3784H77.1931V12.6578H92.2221V23.3784H96.3968V0H92.2221ZM120.103 19.2037L110.317 0L100.532 19.2037L98.3941 23.3784H103.07L105.207 19.2037L110.317 9.18438L115.427 19.2037L117.564 23.3784H122.24L120.103 19.2037ZM124.257 0.0333983V4.20812H133.842V23.4118H138.017V4.20812H147.602V0.0333983H124.257ZM166.498 12.591C167.133 12.5242 167.734 12.3572 168.302 12.09C170.473 11.0881 171.976 8.8838 171.976 6.34557C171.976 4.60889 171.274 3.0392 170.139 1.90367C169.003 0.768149 167.433 0.0667966 165.697 0.0667966H150.935V23.4452H155.11V12.6911H159.284C160.787 12.6911 162.09 13.4927 162.825 14.695L162.925 14.8954L165.162 19.2705L167.3 23.4452H171.976L169.838 19.2705L166.498 12.591ZM155.11 8.54983V4.24152H165.697C166.432 4.24152 166.933 4.57549 167.2 4.84267C167.433 5.07646 167.834 5.61082 167.834 6.37897C167.834 7.21392 167.333 7.98207 166.565 8.31604C166.298 8.44963 165.997 8.51643 165.697 8.51643L155.11 8.54983ZM195.737 19.2037L185.952 0L176.166 19.2037L174.029 23.3784H178.704L180.842 19.2037L185.952 9.18438L191.061 19.2037L193.199 23.3784H197.875L195.737 19.2037ZM208.311 4.17472H220V0H208.311C201.865 0 196.621 5.24345 196.621 11.6892C196.621 18.135 201.865 23.3784 208.311 23.3784H220V19.2037H208.311C204.169 19.2037 200.796 15.8305 200.796 11.6892C200.796 7.54789 204.169 4.17472 208.311 4.17472Z" fill="#2F2F2F"/>
<path d="M11.923 0.463104L21.7086 19.6668L23.846 23.8415H19.1703L17.0329 19.6668L11.923 9.64749L6.81314 19.6668L4.67569 23.8415H0L2.13746 19.6668L11.923 0.463104Z" fill="#2F2F2F"/>
</svg>
