<svg width="834" height="722" viewBox="0 0 834 722" fill="none" xmlns="http://www.w3.org/2000/svg">
<path d="M226.34 524.894C281.141 559.995 307.237 581.627 328.291 655.164" stroke="#8EA4A5" stroke-width="20"/>
<path d="M327.033 353.088C418.915 399.028 506.391 510.419 526.529 616.775" stroke="#8EA4A5" stroke-width="20"/>
<ellipse cx="393.111" cy="571.464" rx="50.3461" ry="52.2341" fill="#8EA4A5"/>
<rect x="107" y="696.595" width="559.487" height="25.1176" transform="rotate(-11 107 696.595)" fill="#8EA4A5"/>
<rect x="115.006" y="700.207" width="545.516" height="21.343" transform="rotate(-41 115.006 700.207)" fill="#8EA4A5"/>
<path d="M414.653 4.67909C415.808 2.67909 418.694 2.67908 419.849 4.67908L831.211 717.179C832.366 719.179 830.922 721.679 828.613 721.679H721.734C720.661 721.679 719.67 721.106 719.134 720.177L420.595 202.005C419.442 200.003 416.554 200.001 415.399 202.001L115.938 720.18C115.402 721.108 114.412 721.679 113.341 721.679H5.88897C3.57957 721.679 2.1362 719.179 3.2909 717.179L414.653 4.67909Z" fill="#D6FDFF"/>
</svg>
