<svg width="477" height="507" viewBox="0 0 477 507" fill="none" xmlns="http://www.w3.org/2000/svg">
<path d="M234.375 0C239.062 1.5625 239.062 1.5625 240.455 4.32167C240.823 5.49177 241.192 6.66187 241.571 7.86743C241.979 9.13132 242.387 10.3952 242.807 11.6974C243.215 13.0257 243.623 14.3541 244.043 15.7227C244.682 17.7242 244.682 17.7242 245.334 19.7662C246.385 23.0684 247.419 26.3751 248.438 29.6875C251.359 30.0591 251.359 30.0591 254.34 30.4382C309.72 37.8577 361.495 61.67 396.875 106.25C422.51 140.031 439.84 180.483 439.062 223.438C441.362 223.365 441.362 223.365 443.707 223.291C450.383 223.291 456.66 224.456 463.184 225.781C464.327 226.005 465.47 226.228 466.647 226.459C469.433 227.005 472.217 227.564 475 228.125C475.516 229.672 476.031 231.219 476.562 232.812C464.357 237.235 452.148 240.927 439.062 240.625C439.159 243.429 439.159 243.429 439.258 246.289C439.023 296.561 413.715 341.322 379.688 376.562C378.727 377.586 377.766 378.609 376.776 379.663C365.129 391.783 351.697 401.998 337.5 410.938C331.931 407.768 327.089 404.314 322.266 400.098C321.049 399.052 319.833 398.007 318.579 396.93C315.544 393.662 314.647 391.854 314.062 387.5C315.442 386.648 316.822 385.796 318.243 384.918C361.045 358.159 392.401 321.659 404.742 271.96C405.885 266.737 406.899 261.518 407.812 256.25C408.398 252.962 408.984 249.674 409.57 246.387C409.8 245.007 410.03 243.627 410.266 242.206C410.938 239.062 410.938 237.5 410.938 237.5C415.11 237.279 420.819 237.434 425 237.5C424.484 233.891 423.969 230.281 423.438 226.562C421.214 226.611 421.214 226.611 418.945 226.66C414.062 226.562 414.188 226.562 410.938 226.562C410.076 222.577 409.39 217.112 408.789 213.086C400.395 162.015 377.977 121.738 335.547 91.2109C313.145 75.9594 288.019 66.0241 261.095 62.5431C247.997 60.8126 247.997 60.8126 243.945 55.6213C242.332 51.6263 241.326 46.4405 240.688 42.1875C236.188 42.1875 233.688 42.1875 229.688 42.1875C229.48 43.1664 229.273 44.1453 229.059 45.1538C228.783 46.4308 228.507 47.7078 228.223 49.0234C227.951 50.2924 227.679 51.5613 227.399 52.8687C226.562 56.25 226.562 56.25 225 59.375C221.896 60.2982 221.896 60.2982 217.81 61.0596C216.313 61.3535 214.816 61.6475 213.274 61.9503C211.665 62.2606 210.056 62.5709 208.398 62.8906C162.57 72.3058 122.335 97.395 96.2219 136.835C78.7988 164.234 71.8348 193.194 67.1875 225C62.5469 225 57.9062 225 53.125 225C53.125 229.125 53.1875 231.938 53.1875 236.188C55.6875 236.188 56.1875 236.438 59.1875 236.188C62.6875 236.188 63.8005 236.377 66.6875 236.188C67.1875 239.688 68.0029 242.802 68.5131 246.605C72.2579 274.053 79.9956 299.35 93.75 323.438C94.6403 325.033 95.5305 326.628 96.4478 328.271C110.302 350.976 131.211 368.272 153.125 382.812C155.221 384.357 157.311 385.912 159.375 387.5C157.191 394.396 153.965 398.104 148.633 402.93C147.283 404.182 145.934 405.435 144.543 406.726C140.625 409.375 140.625 409.375 137.488 409.326C122.584 402.079 110.33 389.448 98.4375 378.125C97.3297 377.118 96.2219 376.111 95.0806 375.073C68.2871 349.92 51.3033 314.812 42.1875 279.688C41.7927 278.203 41.3979 276.719 40.9912 275.189C38.3831 263.881 38.0854 252.179 37.5 240.625C35.6631 240.496 33.8262 240.367 31.9336 240.234C21.0139 239.062 10.5354 235.797 0 232.812C0.515625 231.266 1.03125 229.719 1.5625 228.125C12.9062 226.062 24.25 224 35.9375 221.875C37.2427 213.416 37.2427 213.416 38.5742 204.785C46.1999 158.26 64.843 121.036 98.2422 87.3047C99.2845 86.2478 100.327 85.1908 101.401 84.1019C102.385 83.1245 103.369 82.1471 104.382 81.1401C105.268 80.2577 106.154 79.3752 107.067 78.466C109.375 76.5625 109.287 76.1316 112.5 73.4375C112.5 74.5 112.5 72.4062 112.5 73.4375C130.571 58.2851 153.1 46.8596 175.488 39.7461C176.97 39.2726 178.452 38.7992 179.978 38.3114C194.272 33.918 208.618 31.4843 223.438 29.6875C223.851 28.4218 223.851 28.4218 224.273 27.1305C225.52 23.3263 226.773 19.5245 228.027 15.7227C228.461 14.3943 228.895 13.066 229.343 11.6974C229.761 10.4335 230.179 9.16962 230.609 7.86743C231.186 6.11228 231.186 6.11228 231.775 4.32167C232.812 1.5625 232.812 1.5625 234.375 0Z" fill="#F4F4F4"/>
<path d="M237.5 81.25C242.945 85.3995 243.804 90.8131 245.215 97.168C245.741 99.404 246.268 101.64 246.796 103.876C247.062 105.031 247.329 106.185 247.604 107.375C248.983 113.268 250.473 119.132 251.953 125C252.483 127.116 253.012 129.232 253.54 131.348C253.919 132.862 254.297 134.377 254.688 135.938C260.388 132.283 265.481 128.672 270.215 123.828C271.274 122.745 272.334 121.661 273.425 120.544C276.416 117.344 279.284 114.072 282.129 110.742C287.038 105.045 292.243 99.6277 298.438 95.3125C299.469 95.3125 300.5 95.3125 301.562 95.3125C301.712 105.734 301.392 115.992 300.391 126.367C300.203 128.401 300.203 128.401 300.012 130.476C299.164 138.493 297.62 145.382 294.629 152.93C292.948 157.11 292.948 157.11 292.188 160.938C294.749 165.785 295.893 167.159 300 170.312C301.957 172.033 303.91 173.759 305.859 175.488C307.446 176.842 307.446 176.842 309.064 178.223C325.067 192.321 325.067 192.321 328.125 198.438C327.994 200.085 327.863 201.733 327.728 203.43C326.552 215.067 326.552 215.067 330.719 225.598C334.883 228.921 339.186 231.624 343.75 234.375C345.797 235.772 347.833 237.185 349.86 238.611C359.898 245.67 370.043 252.548 380.463 259.033C382.812 260.938 382.812 260.938 384.375 265.625C375.301 267.978 367.19 269.091 357.812 268.75C359.275 270.965 360.74 273.178 362.207 275.391C363.023 276.623 363.839 277.856 364.679 279.126C367.079 282.846 367.079 282.846 370.038 285.913C371.875 289.062 371.875 289.062 371.033 292.92C362.02 308.535 345.961 314.888 329.688 320.312C320.23 321.187 314.818 318.916 306.836 314.453C280.806 300.714 251.152 294.423 221.875 300C223.438 296.875 225 293.75 226.562 290.625C228.109 290.625 229.656 290.625 231.25 290.625C231.25 289.594 231.25 288.562 231.25 287.5C242.092 281.666 251.877 277.031 264.062 275C255.728 260.707 247.499 252.499 231.476 247.54C226.86 246.624 222.271 246.325 217.578 245.996C214.835 245.8 214.835 245.8 212.036 245.599C210.642 245.505 209.249 245.41 207.812 245.312C209.187 234.3 217.231 227.288 225.482 220.447C228.405 218.248 231.348 216.115 234.375 214.062C220.784 209.678 204.341 217.785 192.188 223.438C186.738 226.797 181.601 230.428 176.562 234.375C181.203 235.148 181.203 235.148 185.938 235.938C183.772 240.793 181.209 244.127 177.539 247.949C171.825 254.284 168.587 260.803 165.625 268.75C168.284 267.977 168.284 267.977 170.996 267.188C178.122 265.377 184.878 265.32 192.188 265.625C192.188 266.656 192.188 267.688 192.188 268.75C190.447 269.471 188.707 270.192 186.914 270.935C172.877 276.889 159.799 283.377 147.076 291.814C142.328 294.948 138.379 297.276 132.812 298.438C132.812 299.469 127.688 304.125 127.688 305.188C124.379 308.227 125.195 308.008 125.195 308.008C123.074 309.706 123.074 309.706 120.911 311.438C117.188 314.062 117.188 314.062 114.062 314.062C114.872 305.067 118.463 298.255 122.656 290.43C123.347 289.126 124.037 287.822 124.749 286.479C130.66 275.575 137.415 265.807 145.312 256.25C140.574 256.25 137.503 257.102 133.008 258.496C123.117 261.303 113.361 262.028 103.125 262.5C103.125 259.375 103.125 259.375 106.738 255.371C110.938 251.562 110.688 251.688 110.688 251.688C110.688 251.688 117.773 245.864 118.75 243.75C120.801 241.225 120.801 241.225 123.102 238.806C123.931 237.924 124.759 237.042 125.613 236.133C126.474 235.23 127.336 234.328 128.223 233.398C134.321 227.354 134.321 227.354 139.062 220.312C138.065 220.141 137.068 219.97 136.041 219.794C134.105 219.422 134.105 219.422 132.129 219.043C130.198 218.689 130.198 218.689 128.229 218.329C127.163 217.952 126.098 217.576 125 217.188C124.484 215.641 123.969 214.094 123.438 212.5C124.154 211.965 124.87 211.429 125.608 210.878C128.89 208.425 132.169 205.97 135.449 203.516C136.576 202.674 137.703 201.832 138.864 200.964C142.063 198.569 145.25 196.16 148.438 193.75C149.962 192.614 151.487 191.478 153.058 190.308C156.644 187.628 156.644 187.628 157.812 182.812C156.266 182.812 154.719 182.812 153.125 182.812C154.366 182.289 165.763 172 167.041 171.46C170.312 170.312 170.312 170.312 173.438 170.312C173.583 168.524 173.583 168.524 173.73 166.699C178.552 144.817 193.583 125.802 209.534 110.663C212.97 107.361 215.828 103.757 218.75 100C221.319 97.3613 223.928 94.7609 226.562 92.1875C228.55 90.2039 230.536 88.2181 232.52 86.2305C234.18 84.5703 235.84 82.9102 237.5 81.25ZM228.125 110.938C208.139 137.481 198.569 163.886 195.312 196.875C199.49 193.765 203.654 190.636 207.812 187.5C209.359 186.34 210.906 185.18 212.5 183.984C213.531 183.082 214.562 182.18 215.625 181.25C217.172 180.477 218.75 176.562 218.75 176.562C219.484 171.444 219.484 171.444 219.727 165.527C219.843 163.511 219.96 161.495 220.081 159.418C220.157 157.857 220.234 156.296 220.312 154.688C221.279 155.719 222.246 156.75 223.242 157.812C226.182 161.294 226.182 161.294 229.688 160.938C236.334 146.363 235.797 127.685 231.25 112.5C230.219 111.984 229.188 111.469 228.125 110.938ZM256.25 210.938C261.075 213.695 262.864 214.062 268.75 214.062C269.169 214.989 269.588 215.916 270.02 216.87C273.098 222.582 277.116 226.558 282.812 229.688C286.897 229.967 290.746 229.693 294.824 229.395C298.438 229.688 298.438 229.688 301.172 231.738C303.32 234.375 303.32 234.375 306.25 239.062C309.527 234.147 309.771 232.95 309.668 227.344C309.653 225.531 309.653 225.531 309.637 223.682C309.489 220.026 309.489 220.026 307.812 215.625C303.758 213.687 299.928 212.109 295.703 210.645C294.511 210.229 293.32 209.813 292.092 209.385C281.295 205.856 264.384 200.562 256.25 210.938Z" fill="#F4F4F4"/>
<path d="M174.828 422.298C178.466 423.555 180.649 425.083 183.6 427.539C184.62 428.379 185.64 429.219 186.691 430.084C187.764 430.984 188.836 431.885 189.941 432.813C191.052 433.73 192.163 434.648 193.307 435.593C196.587 438.304 199.856 441.026 203.125 443.75C207.59 447.441 212.069 451.114 216.565 454.767C219.016 456.759 221.45 458.773 223.865 460.809C224.948 461.69 226.032 462.57 227.148 463.477C228.52 464.619 228.52 464.619 229.919 465.784C232.82 467.462 232.82 467.462 236.438 467.114C242.068 465.112 246.226 461.757 250.781 458.008C251.73 457.245 252.679 456.482 253.657 455.697C260.27 450.351 266.765 444.865 273.242 439.355C276.43 436.651 279.621 433.95 282.812 431.25C284.057 430.189 285.302 429.127 286.584 428.033C287.66 427.161 288.736 426.289 289.844 425.391C291.173 424.291 291.173 424.291 292.529 423.169C296.722 421.22 298.809 421.87 303.125 423.438C307.306 426.898 307.306 426.898 311.426 431.152C313.495 433.252 313.495 433.252 315.607 435.394C318.75 439.063 318.75 439.063 318.75 442.188C315.874 444.629 312.991 446.884 309.961 449.121C308.078 450.54 306.196 451.96 304.315 453.381C303.339 454.115 302.363 454.849 301.357 455.605C296.794 459.055 292.29 462.577 287.793 466.113C286.9 466.815 286.007 467.516 285.087 468.238C276.78 474.786 268.579 481.464 260.383 488.15C252.841 494.296 245.232 500.344 237.5 506.25C227.772 500.889 219.441 495.061 211.285 487.524C203.888 480.816 195.855 474.884 187.695 469.141C182.812 465.625 182.812 465.625 180.798 463.544C176.047 458.912 170.545 455.128 165.216 451.187C160.397 447.553 156.426 444.144 153.125 439.063C155.695 436.415 158.29 433.819 160.938 431.25C161.84 430.372 162.742 429.494 163.672 428.589C164.606 427.727 165.541 426.865 166.504 425.977C167.376 425.159 168.248 424.341 169.147 423.499C171.875 421.875 171.875 421.875 174.828 422.298Z" fill="#F4F4F4"/>
<path d="M286.25 315.187C285.734 316.477 285.219 317.766 284.688 319.094C281.93 328.745 282.693 335.931 285.469 345.363C290.777 365.499 290.252 385.906 280 404.25C274.55 400.798 272.609 397.866 270.625 391.75C270.265 393.035 269.904 394.32 269.533 395.644C264.599 412.532 258.464 429.141 245.625 441.75C242.164 442.916 242.164 442.916 239.375 443.312C238.618 440.678 237.871 438.041 237.129 435.402C236.503 433.2 124.826 308.934 124.188 306.687C123.727 304.797 128.704 298.672 133.188 301.688C156.603 317.434 232.235 395.187 232.235 395.187C232.982 377.301 237.678 359.737 246.809 344.033C254.826 331.125 269.906 315.187 286.25 315.187Z" fill="#F4F4F4"/>
<path d="M214.062 81.25L210.938 98.4375C168.75 109.375 129.688 138.281 109.375 196.875L90.625 195.312C94.5312 142.188 162.5 82.0312 214.062 81.25Z" fill="#D6FDFF"/>
<path d="M284.087 86.651C282.654 94.2696 282.658 97.3227 280.655 103.817C276.348 100.507 261.285 96.3655 250.122 94.9874C249.786 89.5255 251.574 85.2009 252.141 79.7248C268.841 80.2372 276.884 84.4322 284.087 86.651Z" fill="#D6FDFF"/>
<path d="M386.705 204.543L369.517 201.418C364.049 165.48 333.58 131.887 310.924 119.387L317.955 102.98C342.955 113.137 390.625 164.844 386.705 204.543Z" fill="#D6FDFF"/>
<path d="M278.125 210.938C276.531 210.938 279.672 210.938 278.125 210.938C278.125 211.969 282.813 213 282.813 214.062C286.422 215.094 290.031 216.125 293.75 217.188C293.75 218.219 296.875 220.312 296.875 220.312C296.875 221.344 296.875 222.375 296.875 223.438C292.502 225.624 289.211 225.395 284.375 225C281.543 223.242 281.543 223.242 279.688 220.312C278.614 215.332 278.614 215.332 278.125 210.938Z" fill="#F4F4F4"/>
<path d="M281.25 217.188C284.859 217.703 288.469 218.219 292.188 218.75C291.672 220.297 291.156 221.844 290.625 223.438C288.047 222.922 285.469 222.406 282.812 221.875C282.297 220.328 281.781 218.781 281.25 217.188Z" fill="#F4F4F4"/>
</svg>
